# xmcd CD database file generated by Grip 2.95
# 
# Track frame offsets:
#       150
#       20786
#       35330
#       55804
#       75912
#       94644
#       115392
#       141800
#       163070
#       185272
#       201131
# 
# Disc length: 2891 seconds
# 
# Revision: 3
# Processed by: cddbd v1.4PL0 Copyright (c) Steve Scherf et al.
# Submitted via: Grip 2.95
# 
DISCID=8a0b490b
DTITLE=Aztex - Short Stories
DYEAR=1900
DGENRE=
TTITLE0=Why Don't You Love Me?
TTITLE1=La Ultima Noche
TTITLE2=Perfect Woman
TTITLE3=Sueno del Rio
TTITLE4=Padre Prays for Rain
TTITLE5=Amorique
TTITLE6=Maybe, Maybe
TTITLE7=La Jaibera
TTITLE8=Pajarillo Barranqueno
TTITLE9=It's a Mystery
TTITLE10=El Indio/Tamaulipas
EXTD=
EXTT0=
EXTT1=
EXTT2=
EXTT3=
EXTT4=
EXTT5=
EXTT6=
EXTT7=
EXTT8=
EXTT9=
EXTT10=
PLAYORDER=
